<svg width="824" height="518" viewBox="0 0 824 518" fill="none" xmlns="http://www.w3.org/2000/svg">
<path opacity="0.18" d="M823.65 367.07C822.837 383.043 818.752 398.68 811.65 413.01C800.07 436.01 782.05 454.8 760.72 469.33C748.821 477.379 736.112 484.159 722.8 489.56C715.473 492.557 707.996 495.173 700.4 497.4C654.4 510.86 605.86 511.52 557.98 512.08L221 516L176.68 516.51C162.58 516.68 148.21 516.78 133.99 516C106.86 514.54 80.23 509.91 56.88 496.58C44.8518 489.676 34.3471 480.406 26 469.33C10.17 448.44 1.60995 421.8 1.19995 395.25V392.46C1.36995 366.55 9.36995 341 26 321.05C27.06 319.79 28.14 318.54 29.27 317.33C31.62 314.79 34.1899 312.33 36.8899 309.87C54.08 294.36 76.78 280.46 87.07 260.48C105.17 225.32 82.6 210.97 79.63 176.48C74.63 118.48 133.35 51.83 181.05 25.22C232.34 -3.46001 296.94 -6.90001 351 16.11C408.2 40.47 461.58 93.52 521.92 78.56C541.32 73.75 559.14 61.91 579.13 61.56C616.07 60.85 641.71 98.42 653.21 133.56C664.71 168.7 670.95 208.36 698.29 233.23C717.91 251.07 744.96 257.78 768.72 269.63C775.936 273.129 782.77 277.369 789.11 282.28C803.11 293.34 812.73 308.35 818.27 325.03C822.668 338.586 824.492 352.844 823.65 367.07Z" fill="#153FFF"/>
<path opacity="0.18" d="M760.93 469.66C742.401 482.086 722.051 491.553 700.61 497.72C657.61 510.31 612.4 511.72 567.61 512.28L558.22 512.4L434.5 513.85L371.66 514.59L231.79 516.22L221.18 516.34L176.85 516.86C162.75 517.03 148.39 517.12 134.16 516.34C107 514.92 80.37 510.29 57 497C45.0161 490.068 34.5594 480.781 26.26 469.7L760.93 469.66Z" fill="#68E1FD"/>
<path opacity="0.05" d="M624.57 492.12C624.86 496.29 621.9 500.32 622.74 504.41C623.98 510.41 630.83 509.41 636.97 508.96C651.89 507.74 670.97 505.46 685.5 501.71C698.95 498.23 708.74 494.87 721.56 490.71C722.56 490.38 722.25 487.54 722.3 486.49C722.38 485.1 720.54 484.58 719.15 484.49C706.47 484.08 693.65 484.49 681.21 481.99C675.62 480.85 670.14 479.11 664.47 478.46C657.47 477.67 650.47 478.53 643.47 478C638.4 477.61 626.05 472.06 621.34 474.34C614.28 477.83 624.22 487.08 624.57 492.12Z" fill="#000405"/>
<path opacity="0.05" d="M330.78 495.88C345.43 499.99 357.28 508.69 370.18 515.43C323.553 515.963 276.93 516.503 230.31 517.05C234.221 513.32 238.589 510.101 243.31 507.47C258.64 498.89 276.65 496.91 294.11 495.09C306.31 493.81 318.92 492.56 330.78 495.88Z" fill="#000405"/>
<path opacity="0.05" d="M568.57 508.2C568.358 509.536 567.784 510.788 566.91 511.82C566.601 512.222 566.339 512.658 566.13 513.12L556.74 513.24L433 514.66C435.244 512.918 437.277 510.921 439.06 508.71C441.64 505.51 443.7 501.88 446.7 499.1C455.56 490.88 469.59 492.41 481.07 496.1C484.56 497.24 488.07 498.54 491.75 498.49C498.27 498.41 503.87 494.17 509.75 491.25C528.22 482.03 552.67 486.97 566.11 502.64C567.43 504.26 568.74 506.14 568.57 508.2Z" fill="#000405"/>
<path d="M502.57 368L479.7 480.51L464.33 478.75L462.56 478.54C462.56 478.54 466.96 445.2 468.86 397.65C470.11 366.15 475.5 340.43 478.08 319.05C478.881 313.16 480.22 307.356 482.08 301.71C485.2 292.25 489.95 283.4 495.99 284.31C509.33 286.31 526.9 297.84 529.22 305.06C533.26 317.66 502.57 368 502.57 368Z" fill="#25233A"/>
<path opacity="0.24" d="M486.58 302C486.58 302 476.33 381.41 476 406.18C475.67 430.95 465.48 478.54 465.48 478.54L464.3 478.75L462.53 478.54C462.53 478.54 466.93 445.2 468.83 397.65C470.08 366.15 475.47 340.43 478.05 319.05C478.851 313.16 480.19 307.356 482.05 301.71C483.566 301.631 485.086 301.728 486.58 302Z" fill="white"/>
<path d="M555 480.33H538V480.23C537.54 477.94 529 435.64 516.93 405C507.93 382.15 503.58 335.61 501.93 311.79C501.27 302.79 501.01 297.03 501.01 297.03C501.01 297.03 535.53 286.84 540.01 291.36C544.49 295.88 549.58 316.36 549.58 316.36C549.58 316.36 537.76 397.46 545.28 402.96C552.8 408.46 555 480.33 555 480.33Z" fill="#3F3D56"/>
<path d="M286 156.19C286 156.19 260.86 163.94 250.68 236.5C247 262.66 270.4 308.87 270.4 308.87L286 156.19Z" fill="#425FE5"/>
<path d="M286 156.19C286 156.19 260.86 163.94 250.68 236.5C247 262.66 270.4 308.87 270.4 308.87L286 156.19Z" fill="url(#paint0_linear_1_114)"/>
<path d="M267.64 299.81C266.098 299.558 264.519 299.678 263.032 300.158C261.546 300.639 260.195 301.466 259.093 302.573C257.99 303.68 257.167 305.033 256.692 306.521C256.217 308.009 256.103 309.589 256.36 311.13C258.28 322.47 261.94 338.21 268.36 347.13C279.2 362.06 294 382.66 294 382.66L309.3 487.66L328.17 485.11L328 384.49L306.7 306.26L267.64 299.81Z" fill="#25233A"/>
<path d="M306.65 306.26L304.2 393.66L263.75 487.73L250.2 482L246.26 480.31L268.66 392.11C268.66 392.11 259.94 368.11 253.52 350.61C247.36 333.82 255.74 300.55 256.44 297.87V297.69L306.65 306.26Z" fill="#3F3D56"/>
<path d="M474.15 250.36L424.24 275.1L414.92 263.23L412.53 260.17L455.17 237C455.17 237 469.82 204.43 473 189.46C473.61 186.68 474.22 184.46 474.79 182.55C475.9 179.08 486.49 166.82 490.05 166.09C493.61 165.36 489.6 176.3 491.97 179.09C494.572 182.916 495.902 187.465 495.77 192.09C496.18 201.39 474.15 250.36 474.15 250.36Z" fill="#D3D3D3"/>
<path d="M540 279.33C540 279.33 515.21 309.12 486.63 302.03C484.663 301.534 482.737 300.886 480.87 300.09C478.442 299.043 476.528 297.077 475.546 294.622C474.564 292.167 474.594 289.423 475.63 286.99V286.93C478.39 280.67 478.47 271.62 478.22 263.27C477.64 244.06 472.78 223.27 472.42 214.62C472.18 209.09 473.07 201.26 474.7 193.44C477.57 179.54 482.7 165.69 488.01 164.89C503.65 162.48 509.01 166.74 509.01 166.74L535.71 182.25C549 196.11 542.54 217.87 540 279.33Z" fill="#D3D3D3"/>
<path d="M500.81 200.87L507.64 211.87L488.73 231L484.84 234.94L505.39 165.29L505.47 158.32L508.08 160.99V161L511.5 164.5L512.81 193.34L500.81 200.87Z" fill="#68E1FD"/>
<path d="M537.46 217.3L534.56 292.39C534.56 292.39 493.76 311.78 488.37 289.99C484.2 273.15 494.87 253.94 494.87 253.94L537.46 217.3Z" fill="url(#paint1_linear_1_114)"/>
<path d="M497.28 258.94L485.01 308.35L560.83 323.91L571.73 275.57L497.28 258.94Z" fill="white"/>
<path d="M506 147.3C506 147.52 505.73 158.71 505.34 165.83C505.06 171.34 502.48 175.22 498.54 179.06C496.251 181.451 493.498 183.35 490.45 184.64C489.385 185.031 488.208 184.985 487.178 184.511C486.147 184.036 485.346 183.173 484.95 182.11C484.65 181.275 484.611 180.368 484.84 179.51C485.23 178.03 485.62 176.31 485.92 174.51C486.56 170.8 486.84 166.78 485.83 163.94C485.803 163.835 485.769 163.731 485.73 163.63C485.13 162.16 485.73 160.56 487.09 158.95C489 156.68 492.34 154.38 495.67 152.44C499.013 150.532 502.462 148.816 506 147.3Z" fill="url(#paint2_linear_1_114)"/>
<path d="M488.1 173.75C487.414 174.092 486.689 174.347 485.94 174.51C486.58 170.8 486.86 166.78 485.85 163.94L487.11 158.94L488.06 155.22L495.69 152.43L503.42 149.61C501.56 163.37 494.2 170.86 488.1 173.75Z" fill="url(#paint3_linear_1_114)"/>
<path d="M486 108.2C483.116 108.377 480.295 109.121 477.699 110.388C475.102 111.655 472.781 113.422 470.867 115.586C468.953 117.751 467.484 120.271 466.545 123.003C465.605 125.736 465.212 128.626 465.39 131.51C465.407 132.077 465.464 132.641 465.56 133.2C466.258 142.141 468.568 150.882 472.38 159C479.57 171.2 497.63 161.1 500.48 156.06C503.33 151.02 514.08 128.22 509.54 121.75C506.54 117.25 497.72 107.66 486 108.2Z" fill="url(#paint4_linear_1_114)"/>
<path d="M466.88 99.6L470.6 101.5C468.383 101.455 466.187 101.938 464.193 102.908C462.198 103.878 460.463 105.308 459.13 107.08C455.731 110.488 453.81 115.097 453.78 119.91L460.09 116.91C460.09 116.91 459.62 124.7 471.58 125.27C483.54 125.84 496.2 126.27 496.2 126.27L492.14 120.66C492.14 120.66 499.58 123.66 500.88 126.37C502.072 130.772 502.928 135.258 503.44 139.79C503.44 139.79 506.39 132.1 507.62 133.79C508.85 135.48 506.34 142.44 504.79 143.97C503.24 145.5 503.5 150.08 503.36 150.46C503.22 150.84 510.77 144.55 511.1 142.39C511.43 140.23 518.91 118.39 514 113.83L517 113.6C515.24 112.411 513.233 111.638 511.13 111.34C511.13 111.34 491.43 85.66 466.88 99.6Z" fill="#3F3D56"/>
<path d="M389.14 270.41C392.411 267.553 395.99 265.067 399.81 263C402.806 261.943 405.931 261.297 409.1 261.08C409.1 261.08 409.62 265.45 407.1 265.74C404.58 266.03 402.48 269.86 402.48 269.86C402.48 269.86 418.65 276.48 420.88 275.86C423.11 275.24 422.67 278.46 418.58 278.25C414.49 278.04 413.49 283.76 410.66 283.68C407.83 283.6 403.35 285.35 399.19 285.5C394.986 285.151 390.855 284.187 386.93 282.64L389.14 270.41Z" fill="url(#paint5_linear_1_114)"/>
<path d="M326.56 224L313 300.22C313 300.22 308.32 314.81 284.1 312.63C275.244 311.896 266.91 308.144 260.49 302L260.1 301.63L259.83 301.35C255.191 296.761 251.558 291.258 249.16 285.19C249.16 285.19 264.72 177.66 281.06 159C282.69 157.14 284.32 156.15 285.96 156.24C290.435 156.83 294.709 158.461 298.44 161C308.924 167.45 317.218 176.914 322.235 188.155C327.252 199.395 328.759 211.889 326.56 224Z" fill="#425FE5"/>
<path d="M301.07 221.45L284.07 312.62C284.07 312.62 310.12 316.2 312.97 300.22L320.97 253.85L301.07 221.45Z" fill="url(#paint6_linear_1_114)"/>
<path d="M286 156.19C286 156.19 288.59 136.58 289.63 123.83C290.67 111.08 294.83 94 316.23 96.19C337.63 98.38 337.7 130.73 331.79 144.27C325.88 157.81 318 157.42 318 157.42C318 157.42 307.34 155.1 307.74 167.92L286 156.19Z" fill="url(#paint7_linear_1_114)"/>
<path d="M293.9 93.48C290.785 96.4741 288.536 100.254 287.39 104.42C286.429 107.797 285.78 111.255 285.45 114.75L287.63 112.36C287.522 118.344 287.078 124.316 286.3 130.25C285.487 135.778 285.153 141.365 285.3 146.95L289.3 146.75L294.3 152.89L299.82 149.15L304 147L307.7 137.86C306.781 137.198 306.106 136.251 305.78 135.166C305.455 134.081 305.497 132.919 305.9 131.86C307.26 128.13 310.64 127.27 311.43 129.47C312.033 132.211 312.368 135.004 312.43 137.81L318.33 121.1C318.33 121.1 322.03 115.91 325.27 119.48C327.212 121.641 329.668 123.279 332.41 124.24L330.41 118.72L335.76 120.09L335.34 113.71L339.34 116.5C339.34 116.5 341.09 106.17 337.7 101.59C334.31 97.01 320.83 78.66 293.9 93.48Z" fill="#3F3D56"/>
<path d="M389.59 268.34L386.88 282.66L386.15 286.51L337.34 282.87C323.83 281.71 310.57 272.47 308.89 258.96L292 199.33C291.239 196.885 291.11 194.287 291.626 191.779C292.142 189.271 293.285 186.934 294.949 184.988C296.614 183.042 298.744 181.55 301.142 180.651C303.54 179.753 306.127 179.477 308.66 179.85C311.876 180.331 314.892 181.704 317.366 183.813C319.841 185.921 321.675 188.682 322.66 191.78L333.29 245.15C333.907 248.292 335.418 251.19 337.64 253.496C339.862 255.802 342.703 257.418 345.82 258.15L389.59 268.34Z" fill="#425FE5"/>
<path d="M414.92 263.22L408.12 265.34C408.12 265.34 399.62 266.1 396.79 268.52C393.96 270.94 395.54 272.03 395.54 272.03C395.54 272.03 404.54 270.71 406.48 271.46C408.42 272.21 417.91 275.98 420.91 275.93C423.91 275.88 424.24 275.1 424.24 275.1L414.92 263.22Z" fill="url(#paint8_linear_1_114)"/>
<path d="M394.41 281C394.911 280.554 395.509 280.231 396.157 280.058C396.804 279.884 397.483 279.864 398.14 280C398.288 280.025 398.424 280.095 398.53 280.2C398.594 280.322 398.627 280.457 398.627 280.595C398.627 280.733 398.594 280.868 398.53 280.99C398.079 282.514 397.361 283.946 396.41 285.22C397.47 284.86 397.96 283.68 398.63 282.79C399.135 282.122 399.784 281.576 400.528 281.192C401.272 280.807 402.093 280.595 402.93 280.57C403.131 280.551 403.333 280.592 403.51 280.69C403.92 280.97 403.74 281.61 403.51 282.06C403.09 282.9 402.68 283.75 402.26 284.6C403.321 283.069 404.549 281.661 405.92 280.4C406.248 280.05 406.662 279.791 407.12 279.65C407.35 279.579 407.599 279.593 407.819 279.691C408.04 279.788 408.218 279.962 408.32 280.18C408.41 280.446 408.41 280.734 408.32 281C408.031 282.157 407.522 283.247 406.82 284.21C407.665 282.816 408.725 281.564 409.96 280.5C410.047 280.397 410.159 280.316 410.284 280.266C410.41 280.215 410.546 280.196 410.68 280.21C410.832 280.26 410.957 280.368 411.03 280.51C411.45 281.21 411.03 282.1 410.59 282.8C409.78 284.09 408.75 285.47 407.24 285.7C406.901 285.719 406.565 285.78 406.24 285.88C406.008 285.999 405.79 286.143 405.59 286.31C405.07 286.667 404.458 286.865 403.827 286.88C403.196 286.894 402.575 286.724 402.04 286.39C401.311 286.853 400.462 287.092 399.598 287.078C398.734 287.064 397.894 286.797 397.18 286.31C397.017 286.167 396.812 286.081 396.595 286.064C396.379 286.048 396.163 286.103 395.98 286.22C395.329 286.442 394.626 286.456 393.967 286.261C393.307 286.065 392.725 285.67 392.3 285.13C391.4 283.85 393.42 281.86 394.41 281Z" fill="url(#paint9_linear_1_114)"/>
<path d="M540.94 305.89L524.24 300.12L523.67 299.92L535.84 260.8C535.84 260.8 519.84 216.8 517.18 203.33C516.32 198.851 516.28 194.253 517.06 189.76C517.451 187.426 518.539 185.265 520.181 183.56C521.823 181.856 523.942 180.688 526.26 180.21C528.852 179.638 531.562 179.992 533.92 181.21C536.003 182.289 538.008 183.512 539.92 184.87C541.454 185.985 542.542 187.608 542.99 189.45C545.99 201.77 558.06 252.03 558.51 256.8C559 262.27 540.94 305.89 540.94 305.89Z" fill="#D3D3D3"/>
<path d="M519.31 303.44C518.49 304.22 517.71 305.62 518.58 306.36C518.79 306.54 519.08 306.64 519.25 306.86C519.67 307.39 519.15 308.13 518.67 308.6L514.67 312.49C513.19 313.92 511.58 315.71 511.92 317.74C512.086 318.462 512.442 319.126 512.952 319.662C513.462 320.199 514.108 320.588 514.82 320.79C516.255 321.164 517.764 321.146 519.19 320.74C519.166 321.161 519.265 321.579 519.477 321.944C519.689 322.308 520.003 322.603 520.38 322.79C521.146 323.147 521.975 323.351 522.82 323.39C525.258 323.824 527.759 323.756 530.17 323.19C530.35 323.46 530.53 323.72 530.72 323.98C533.88 323.42 535.6 320.04 536.72 317.04C537.84 314.04 538.98 310.7 539.94 307.47C540.119 307.035 540.151 306.554 540.03 306.1C539.881 305.833 539.677 305.599 539.433 305.415C539.188 305.231 538.908 305.1 538.61 305.03C534.79 303.58 530.98 302.1 527.15 300.67C523.61 299.35 522 300.93 519.31 303.44Z" fill="url(#paint10_linear_1_114)"/>
<path d="M500.81 200.87L507.64 211.87L488.73 231L484.84 234.94L505.39 165.29L505.47 158.32L508.08 160.99V161L511.5 164.5L512.81 193.34L500.81 200.87Z" fill="#D3D3D3"/>
<path d="M485.94 174.51L483.39 186.51L484.84 234.93L503.47 171.8L495.47 176.86C495.04 177.13 494.6 177.38 494.14 177.61C493.445 177.959 492.689 178.169 491.913 178.226C491.138 178.283 490.359 178.186 489.62 177.942C488.882 177.698 488.199 177.31 487.611 176.802C487.022 176.294 486.539 175.675 486.19 174.98C486.11 174.82 486.04 174.66 485.97 174.49L485.94 174.51Z" fill="white"/>
<path d="M486.06 164.84L477.75 180.41L480.51 186.91L476 196.66L484.81 234.93C484.81 234.93 482.4 188.15 485.91 174.49C485.94 174.51 487.1 168 486.06 164.84Z" fill="#D3D3D3"/>
<path d="M500.81 200.87L507.64 211.87L488.73 231L484.84 234.94L505.39 165.29L505.47 158.32L508.08 160.99V161L511.5 164.5L512.81 193.34L500.81 200.87Z" fill="url(#paint11_linear_1_114)"/>
<path d="M486.06 164.84L477.75 180.41L480.51 186.91L476 196.66L484.81 234.93C484.81 234.93 482.4 188.15 485.91 174.49C485.94 174.51 487.1 168 486.06 164.84Z" fill="url(#paint12_linear_1_114)"/>
<path d="M285.32 152.91L309.87 165.12L316.51 177.99L281.08 158.93L285.32 152.91Z" fill="#425FE5"/>
<path d="M285.32 152.91L309.87 165.12L316.51 177.99L281.08 158.93L285.32 152.91Z" fill="url(#paint13_linear_1_114)"/>
<path d="M219.7 322.21V517.21H198.23V428.75H4.57C1.70208 418.207 0.166783 407.345 0 396.42L0 393.66C0.17 367.76 8.16 342.14 24.81 322.25L219.7 322.21Z" fill="#425FE5"/>
<path d="M242.61 311V322.18H24.8101C25.8601 320.92 26.9501 319.67 28.0701 318.46C30.4301 315.92 32.9901 313.46 35.7001 311H242.61Z" fill="#425FE5"/>
<path d="M124.15 246.66C121.69 244.3 118.75 242.5 116.15 240.34C115.23 239.58 114.26 238.56 114.44 237.34C114.555 236.868 114.806 236.439 115.161 236.107C115.516 235.775 115.961 235.553 116.44 235.47C117.412 235.34 118.401 235.401 119.35 235.65L113.75 229.35C113.23 228.76 112.67 227.95 113.05 227.26C113.43 226.57 114.5 226.61 115.24 226.96C115.911 227.421 116.689 227.7 117.5 227.77C115.5 224.96 112.96 222.67 110.83 220C108.7 217.33 106.99 214 107.31 210.64C107.318 210.151 107.491 209.679 107.8 209.3C108.44 208.66 109.52 208.93 110.35 209.3C116.274 211.878 121.026 216.569 123.68 222.46C122.756 219.592 122.383 216.576 122.58 213.57C122.56 213.22 122.618 212.87 122.75 212.545C122.881 212.22 123.083 211.928 123.34 211.69C124.34 211 125.66 212.19 126.24 213.3C130.18 220.97 127.43 230.3 129.04 238.79C129.25 236.429 130.351 234.237 132.12 232.66C132.609 237.03 132.441 241.45 131.62 245.77C132.85 246.31 132.75 248.07 132.44 249.39C132.04 251.39 131.54 253.39 130.94 255.39C128.74 255.21 128.7 254.01 128.01 252.24C127.14 250.124 125.823 248.221 124.15 246.66Z" fill="#425FE5"/>
<path d="M141.78 220.52C143.85 218.17 146.33 215.94 149.4 215.3C150.33 217.09 149.4 219.3 148.11 220.87C146.82 222.44 145.22 223.87 144.57 225.73C147.249 222.532 150.872 220.267 154.92 219.26C156.357 218.77 157.928 218.86 159.3 219.51C159.496 219.614 159.67 219.756 159.811 219.927C159.952 220.099 160.057 220.297 160.12 220.51C160.36 221.61 158.96 222.27 157.86 222.51C150.141 224.543 143.366 229.19 138.69 235.66C143.253 232.9 148.601 231.729 153.9 232.33C154.82 232.44 155.9 232.72 156.24 233.57C156.77 234.83 155.34 236.03 154.04 236.46C149.04 238.12 142.78 236.35 138.74 239.77C140.929 239.53 143.127 240.138 144.88 241.47C146.29 242.54 147.33 244.73 146.09 245.99C145.67 246.316 145.184 246.546 144.666 246.663C144.147 246.781 143.609 246.783 143.09 246.67C140.2 246.42 136.64 245.94 134.98 248.32C134.07 249.63 134.14 251.32 133.8 252.92C133.53 254.19 132.48 256.44 131.1 255.2C130.18 254.37 130.54 251.47 130.54 250.37C130.608 239.411 134.587 228.836 141.76 220.55L141.78 220.52Z" fill="#425FE5"/>
<path d="M124.15 246.66C121.69 244.3 118.75 242.5 116.15 240.34C115.23 239.58 114.26 238.56 114.44 237.34C114.555 236.868 114.806 236.439 115.161 236.107C115.516 235.775 115.961 235.553 116.44 235.47C117.412 235.34 118.401 235.401 119.35 235.65L113.75 229.35C113.23 228.76 112.67 227.95 113.05 227.26C113.43 226.57 114.5 226.61 115.24 226.96C115.911 227.421 116.689 227.7 117.5 227.77C115.5 224.96 112.96 222.67 110.83 220C108.7 217.33 106.99 214 107.31 210.64C107.318 210.151 107.491 209.679 107.8 209.3C108.44 208.66 109.52 208.93 110.35 209.3C116.274 211.878 121.026 216.569 123.68 222.46C122.756 219.592 122.383 216.576 122.58 213.57C122.56 213.22 122.618 212.87 122.75 212.545C122.881 212.22 123.083 211.928 123.34 211.69C124.34 211 125.66 212.19 126.24 213.3C130.18 220.97 127.43 230.3 129.04 238.79C129.25 236.429 130.351 234.237 132.12 232.66C132.609 237.03 132.441 241.45 131.62 245.77C132.85 246.31 132.75 248.07 132.44 249.39C132.04 251.39 131.54 253.39 130.94 255.39C128.74 255.21 128.7 254.01 128.01 252.24C127.14 250.124 125.823 248.221 124.15 246.66Z" fill="url(#paint14_linear_1_114)"/>
<path d="M141.78 220.52C143.85 218.17 146.33 215.94 149.4 215.3C150.33 217.09 149.4 219.3 148.11 220.87C146.82 222.44 145.22 223.87 144.57 225.73C147.249 222.532 150.872 220.267 154.92 219.26C156.357 218.77 157.928 218.86 159.3 219.51C159.496 219.614 159.67 219.756 159.811 219.927C159.952 220.099 160.057 220.297 160.12 220.51C160.36 221.61 158.96 222.27 157.86 222.51C150.141 224.543 143.366 229.19 138.69 235.66C143.253 232.9 148.601 231.729 153.9 232.33C154.82 232.44 155.9 232.72 156.24 233.57C156.77 234.83 155.34 236.03 154.04 236.46C149.04 238.12 142.78 236.35 138.74 239.77C140.929 239.53 143.127 240.138 144.88 241.47C146.29 242.54 147.33 244.73 146.09 245.99C145.67 246.316 145.184 246.546 144.666 246.663C144.147 246.781 143.609 246.783 143.09 246.67C140.2 246.42 136.64 245.94 134.98 248.32C134.07 249.63 134.14 251.32 133.8 252.92C133.53 254.19 132.48 256.44 131.1 255.2C130.18 254.37 130.54 251.47 130.54 250.37C130.608 239.411 134.587 228.836 141.76 220.55L141.78 220.52Z" fill="url(#paint15_linear_1_114)"/>
<path d="M143.88 310.92L132.44 310.98H121.12C96.22 296.22 125 266.2 125 266.2C125 266.2 126.14 261.52 124.65 258.57C124.307 257.858 123.77 257.259 123.1 256.84C119.43 254.64 124.55 253.77 124.55 253.77H139.91C139.91 253.77 145.17 254.21 141.22 256.98C137.27 259.75 139.47 266.2 139.47 266.2C170.2 300.37 143.88 310.92 143.88 310.92Z" fill="white"/>
<path opacity="0.51" d="M133.27 310.08C133.017 310.401 132.74 310.702 132.44 310.98H121.12C96.22 296.22 125 266.2 125 266.2C125 266.2 126.14 261.52 124.65 258.57C129.65 258.19 132.06 264.64 131.39 268.74C130.88 271.9 130.39 275.07 129.84 278.23C129.199 281.185 129.03 284.222 129.34 287.23C129.96 291.23 132.24 294.76 133.73 298.52C135.22 302.28 135.76 306.88 133.27 310.08Z" fill="url(#paint16_linear_1_114)"/>
<path d="M219.7 322.21L107.82 354C88.4156 359.512 70.372 369.005 54.8388 381.875C39.3055 394.744 26.6233 410.709 17.6 428.75H4.6C1.72225 418.208 0.176881 407.346 0 396.42L0 393.66C0.17 367.76 8.16 342.14 24.81 322.25L219.7 322.21Z" fill="url(#paint17_linear_1_114)"/>
<path opacity="0.61" d="M208.49 428.75H198.23V517.05H208.49V428.75Z" fill="url(#paint18_linear_1_114)"/>
<path d="M822.44 368.23C821.622 384.203 817.538 399.838 810.44 414.17C807.81 419.391 804.837 424.433 801.54 429.26C790.46 445.54 775.97 459.26 759.54 470.5C747.638 478.542 734.929 485.319 721.62 490.72L695.11 485.83L644.3 476.46C641.81 476 639.4 475.71 637.12 475.46C627.75 474.4 620.46 473.88 617.71 464.37C614.3 452.66 617.71 434.74 617.71 422.46C617.71 401.12 619.94 375.71 638.52 365.23C653.94 356.55 673.52 362.68 690.73 358.66C692.388 358.389 693.951 357.701 695.27 356.66C697.27 354.81 697.58 351.81 697.63 349.09C698.06 328.44 691.16 305.28 703.5 288.72C712.94 276.06 730.21 272.57 745.93 271.11C750.769 270.65 755.629 270.44 760.49 270.48C762.85 270.48 765.207 270.58 767.56 270.78C783.85 272.04 799.37 277.27 807.65 290.68C812.08 297.84 813.65 306.34 815.13 314.63C815.8 318.46 816.47 322.32 817.13 326.18C819.33 340 821.33 354.15 822.44 368.23Z" fill="#3F3D56"/>
<path d="M822.44 368.23C821.622 384.203 817.538 399.838 810.44 414.17C807.81 419.391 804.837 424.432 801.54 429.26C795.45 431.85 788.12 431.82 781.33 431.92C770.642 432.082 759.979 432.998 749.42 434.66C744.68 435.4 739.74 436.39 736.02 439.43C731.11 443.43 729.41 450.26 729.14 456.61C728.87 462.96 729.72 469.39 728.64 475.66C728.385 477.773 727.582 479.783 726.31 481.49C723.76 484.56 719.31 485.11 715.31 485.36C708.55 485.767 701.787 485.933 695.02 485.86C678.003 485.641 661.042 483.86 644.35 480.54C641.46 479.96 638.09 478.93 637.17 476.12C637.103 475.912 637.056 475.697 637.03 475.48C636.879 474.159 637.001 472.821 637.39 471.55L646.54 432.38C647.78 427.06 649.06 421.64 651.89 416.97C657.53 407.62 668.25 402.84 678.3 398.61L705.36 387.2C712.76 384.1 717.79 383.7 717.13 374.99C715.68 355.73 711.64 336.99 711.64 317.55C711.64 311.97 711.9 306.2 714.3 301.18C716.7 296.16 721.01 292.34 725.44 288.98C736.073 281.056 747.86 274.813 760.39 270.47C762.75 270.47 765.107 270.57 767.46 270.77C783.75 272.03 799.27 277.26 807.55 290.67C811.98 297.83 813.55 306.33 815.03 314.62C815.7 318.45 816.37 322.31 817.03 326.17C818.48 334.94 819.81 343.8 820.88 352.68C821.5 357.84 822 363 822.44 368.23Z" fill="#25233A"/>
<path d="M822.44 368.23C821.622 384.203 817.538 399.838 810.44 414.17C807.81 419.391 804.837 424.433 801.54 429.26C795.45 431.85 788.12 431.82 781.33 431.92C770.642 432.082 759.979 432.998 749.42 434.66C744.68 435.4 739.74 436.39 736.02 439.43C736.02 439.43 742.23 405.11 767.56 393.55C792.89 381.99 820.88 352.66 820.88 352.66C821.5 357.84 822 363 822.44 368.23Z" fill="#3F3D56"/>
<path d="M266.53 297.31C266.39 297.19 266.26 297.06 266.13 296.93L266.22 297.01C266.335 297.097 266.439 297.198 266.53 297.31Z" fill="url(#paint19_linear_1_114)"/>
<path opacity="0.24" d="M255.45 281.4C255.45 281.4 256.9 297.49 260.62 301.58C255.876 296.887 252.16 291.257 249.71 285.05C249.71 285.05 264.4 178.05 281.06 158.95L286.06 161.6L255.45 281.4Z" fill="white"/>
<path opacity="0.24" d="M472.47 194.66L472.7 205.66L458.34 241.81L414.46 264.81L412 261.66L455.61 238C455.61 238 469.22 210 472.47 194.66Z" fill="white"/>
<path opacity="0.24" d="M387.82 281.31L387.08 285.25L337.16 281.53C323.34 280.34 309.78 270.89 308.06 257.08L290.83 196.08C290.052 193.577 289.92 190.918 290.444 188.35C290.969 185.782 292.133 183.388 293.83 181.39C293.83 181.39 309.92 256.89 315.83 263.65C321.74 270.41 333 274.46 333 274.46L387.82 281.31Z" fill="white"/>
<path opacity="0.24" d="M276.62 399.66L249.77 484.46L245.77 482.74L268.68 392.54C268.68 392.54 259.76 368 253.2 350.09C246.9 332.92 255.47 298.9 256.2 296.16L259.63 299.71C259.63 299.71 250.63 339.97 262.21 359.11C273.79 378.25 276.62 399.66 276.62 399.66Z" fill="white"/>
<path opacity="0.24" d="M487.25 302C485.237 301.489 483.268 300.82 481.36 300C480.128 299.473 479.011 298.708 478.075 297.749C477.139 296.79 476.401 295.655 475.903 294.411C475.405 293.166 475.157 291.836 475.174 290.496C475.191 289.155 475.471 287.832 476 286.6V286.45C478.83 280.05 478.91 270.79 478.65 262.25C478.06 242.61 473.09 221.38 472.72 212.5C472.48 206.85 473.39 198.84 475.05 190.84L478.19 177.55C478.19 177.55 475.31 199.11 474.57 205.02C473.83 210.93 480.57 244.58 483.08 249.46C485.59 254.34 481.19 283.06 481.78 289.88C482.37 296.7 487.25 302 487.25 302Z" fill="white"/>
<path opacity="0.24" d="M542.94 480.53L538.85 482.53C538.38 480.18 529.63 436.93 517.3 405.59C508.09 382.22 503.65 334.59 501.92 310.27L506.99 311.27C506.99 311.27 514.51 373.37 522.77 396.33C531.03 419.29 542.94 480.53 542.94 480.53Z" fill="white"/>
<path opacity="0.24" d="M540.46 258.66L527.2 301.37L524.2 300.8L523.61 300.6L536.06 260.6C536.06 260.6 519.76 215.66 517 201.82C516.122 197.239 516.078 192.537 516.87 187.94C517.27 185.552 518.383 183.341 520.062 181.598C521.742 179.854 523.909 178.659 526.28 178.17C526.28 178.17 517.28 184.44 520.02 198.3C523.6 216.11 540.46 258.66 540.46 258.66Z" fill="white"/>
<path opacity="0.24" d="M510.15 167.15L489.42 232.91L485.44 236.94L506.46 165.71L506.54 158.58L509.21 161.31V161.32L510.15 167.15Z" fill="white"/>
<path d="M248.82 481.06L243.07 491.52L248.85 494.83L251 493.11L260.32 501.69C260.32 501.69 263.65 503.99 271.8 503.99C279.95 503.99 281.56 502.82 281.56 502.82C281.56 502.82 281.56 490.82 271.56 491.37C261.56 491.92 260.87 486.23 260.87 486.23L248.82 481.06Z" fill="#222222"/>
<path d="M312.44 487.34L311.5 502.8H318.5V497L328 502.8L351.49 502.74C351.49 502.74 351.49 486.74 340.93 487.58C330.37 488.42 326.11 487.58 326.11 487.58L324.44 485.35L312.44 487.34Z" fill="#222222"/>
<path d="M554.06 480.29L555.06 495.74H548.06V489.9L538.63 495.76L515.14 495.82C515.14 495.82 515.14 479.82 525.63 480.61C536.12 481.4 540.45 480.61 540.45 480.61L542.1 478.37L554.06 480.29Z" fill="#AAAAAA"/>
<path d="M477.49 480.48L478.49 495.92H471.49V490.08L462 496L438.51 496.06C438.51 496.06 438.51 480.06 449 480.85C459.49 481.64 463.82 480.85 463.82 480.85L465.47 478.61L477.49 480.48Z" fill="#AAAAAA"/>
<path d="M248.82 481.06L243.07 491.52L248.85 494.83L251 493.11L260.32 501.69C260.32 501.69 263.65 503.99 271.8 503.99C279.95 503.99 281.56 502.82 281.56 502.82C281.56 502.82 281.56 490.82 271.56 491.37C261.56 491.92 260.87 486.23 260.87 486.23L248.82 481.06Z" fill="url(#paint20_linear_1_114)"/>
<path d="M312.44 487.34L311.5 502.8H318.5V497L328 502.8L351.49 502.74C351.49 502.74 351.49 486.74 340.93 487.58C330.37 488.42 326.11 487.58 326.11 487.58L324.44 485.35L312.44 487.34Z" fill="url(#paint21_linear_1_114)"/>
<path d="M554.06 480.29L555.06 495.74H548.06V489.9L538.63 495.76L515.14 495.82C515.14 495.82 515.14 479.82 525.63 480.61C536.12 481.4 540.45 480.61 540.45 480.61L542.1 478.37L554.06 480.29Z" fill="url(#paint22_linear_1_114)"/>
<path d="M477.49 480.48L478.49 495.92H471.49V490.08L462 496L438.51 496.06C438.51 496.06 438.51 480.06 449 480.85C459.49 481.64 463.82 480.85 463.82 480.85L465.47 478.61L477.49 480.48Z" fill="url(#paint23_linear_1_114)"/>
<defs>
<linearGradient id="paint0_linear_1_114" x1="287.17" y1="229.42" x2="181.59" y2="266.02" gradientUnits="userSpaceOnUse">
<stop stop-opacity="0"/>
<stop offset="0.91" stop-opacity="0.8"/>
<stop offset="1"/>
</linearGradient>
<linearGradient id="paint1_linear_1_114" x1="505.87" y1="251.41" x2="553.18" y2="281.25" gradientUnits="userSpaceOnUse">
<stop stop-opacity="0"/>
<stop offset="0.91" stop-opacity="0.8"/>
<stop offset="1"/>
</linearGradient>
<linearGradient id="paint2_linear_1_114" x1="485.41" y1="166.1" x2="506.8" y2="166.1" gradientUnits="userSpaceOnUse">
<stop stop-color="#ECC4D7"/>
<stop offset="0.42" stop-color="#EFD4D1"/>
<stop offset="1" stop-color="#F2EAC9"/>
</linearGradient>
<linearGradient id="paint3_linear_1_114" x1="498.37" y1="151.15" x2="460.66" y2="213.89" gradientUnits="userSpaceOnUse">
<stop stop-color="#ECC4D7"/>
<stop offset="0.42" stop-color="#EFD4D1"/>
<stop offset="1" stop-color="#F2EAC9"/>
</linearGradient>
<linearGradient id="paint4_linear_1_114" x1="466.16" y1="136.48" x2="511.46" y2="136.48" gradientUnits="userSpaceOnUse">
<stop stop-color="#ECC4D7"/>
<stop offset="0.42" stop-color="#EFD4D1"/>
<stop offset="1" stop-color="#F2EAC9"/>
</linearGradient>
<linearGradient id="paint5_linear_1_114" x1="384.97" y1="281.31" x2="408.5" y2="272.14" gradientUnits="userSpaceOnUse">
<stop stop-color="#ECC4D7"/>
<stop offset="0.42" stop-color="#EFD4D1"/>
<stop offset="1" stop-color="#F2EAC9"/>
</linearGradient>
<linearGradient id="paint6_linear_1_114" x1="292.09" y1="297.37" x2="333.76" y2="196.58" gradientUnits="userSpaceOnUse">
<stop stop-opacity="0"/>
<stop offset="0.91" stop-opacity="0.8"/>
<stop offset="1"/>
</linearGradient>
<linearGradient id="paint7_linear_1_114" x1="315.38" y1="132.9" x2="327.77" y2="136.75" gradientUnits="userSpaceOnUse">
<stop stop-color="#ECC4D7"/>
<stop offset="0.42" stop-color="#EFD4D1"/>
<stop offset="1" stop-color="#F2EAC9"/>
</linearGradient>
<linearGradient id="paint8_linear_1_114" x1="413.14" y1="264.73" x2="389.62" y2="320.2" gradientUnits="userSpaceOnUse">
<stop stop-color="#ECC4D7"/>
<stop offset="0.42" stop-color="#EFD4D1"/>
<stop offset="1" stop-color="#F2EAC9"/>
</linearGradient>
<linearGradient id="paint9_linear_1_114" x1="402.41" y1="279.98" x2="396.99" y2="299.67" gradientUnits="userSpaceOnUse">
<stop stop-color="#ECC4D7"/>
<stop offset="0.42" stop-color="#EFD4D1"/>
<stop offset="1" stop-color="#F2EAC9"/>
</linearGradient>
<linearGradient id="paint10_linear_1_114" x1="512.23" y1="312.09" x2="540.46" y2="312.09" gradientUnits="userSpaceOnUse">
<stop stop-color="#ECC4D7"/>
<stop offset="0.42" stop-color="#EFD4D1"/>
<stop offset="1" stop-color="#F2EAC9"/>
</linearGradient>
<linearGradient id="paint11_linear_1_114" x1="499.09" y1="164.67" x2="497.69" y2="424.55" gradientUnits="userSpaceOnUse">
<stop stop-opacity="0"/>
<stop offset="0.91" stop-opacity="0.8"/>
<stop offset="1"/>
</linearGradient>
<linearGradient id="paint12_linear_1_114" x1="481.34" y1="164.57" x2="479.94" y2="424.45" gradientUnits="userSpaceOnUse">
<stop stop-opacity="0"/>
<stop offset="0.91" stop-opacity="0.8"/>
<stop offset="1"/>
</linearGradient>
<linearGradient id="paint13_linear_1_114" x1="300.51" y1="152.92" x2="295.81" y2="195.53" gradientUnits="userSpaceOnUse">
<stop stop-opacity="0"/>
<stop offset="0.44" stop-opacity="0.35"/>
<stop offset="0.91" stop-opacity="0.8"/>
<stop offset="1"/>
</linearGradient>
<linearGradient id="paint14_linear_1_114" x1="124.35" y1="232.5" x2="143.68" y2="238.5" gradientUnits="userSpaceOnUse">
<stop stop-opacity="0"/>
<stop offset="0.91" stop-opacity="0.8"/>
<stop offset="1"/>
</linearGradient>
<linearGradient id="paint15_linear_1_114" x1="144.69" y1="235.37" x2="132.12" y2="235.56" gradientUnits="userSpaceOnUse">
<stop stop-opacity="0"/>
<stop offset="0.91" stop-opacity="0.8"/>
<stop offset="1"/>
</linearGradient>
<linearGradient id="paint16_linear_1_114" x1="152.34" y1="267.54" x2="85.04" y2="316.25" gradientUnits="userSpaceOnUse">
<stop stop-color="white" stop-opacity="0"/>
<stop offset="1" stop-color="#3F3D56"/>
</linearGradient>
<linearGradient id="paint17_linear_1_114" x1="110.8" y1="372.65" x2="30.83" y2="205.4" gradientUnits="userSpaceOnUse">
<stop stop-opacity="0"/>
<stop offset="0.91" stop-opacity="0.8"/>
<stop offset="1"/>
</linearGradient>
<linearGradient id="paint18_linear_1_114" x1="-121.91" y1="342.79" x2="381.92" y2="544.32" gradientUnits="userSpaceOnUse">
<stop offset="0.17" stop-color="#00272E"/>
<stop offset="1" stop-color="#69B9EB" stop-opacity="0"/>
</linearGradient>
<linearGradient id="paint19_linear_1_114" x1="266.13" y1="297.12" x2="266.53" y2="297.12" gradientUnits="userSpaceOnUse">
<stop stop-color="#68E1FD"/>
<stop offset="1" stop-color="#69B9EB"/>
</linearGradient>
<linearGradient id="paint20_linear_1_114" x1="288.46" y1="481.68" x2="247.71" y2="499.67" gradientUnits="userSpaceOnUse">
<stop stop-opacity="0"/>
<stop offset="0.91" stop-opacity="0.8"/>
<stop offset="1"/>
</linearGradient>
<linearGradient id="paint21_linear_1_114" x1="353.1" y1="480.87" x2="317.49" y2="504.73" gradientUnits="userSpaceOnUse">
<stop stop-opacity="0"/>
<stop offset="0.91" stop-opacity="0.8"/>
<stop offset="1"/>
</linearGradient>
<linearGradient id="paint22_linear_1_114" x1="518.26" y1="475.69" x2="546.89" y2="497.35" gradientUnits="userSpaceOnUse">
<stop stop-opacity="0"/>
<stop offset="0.91" stop-opacity="0.8"/>
<stop offset="1"/>
</linearGradient>
<linearGradient id="paint23_linear_1_114" x1="430.51" y1="474.34" x2="486.31" y2="502.61" gradientUnits="userSpaceOnUse">
<stop stop-opacity="0"/>
<stop offset="0.91" stop-opacity="0.8"/>
<stop offset="1"/>
</linearGradient>
</defs>
</svg>
